Patient4_TMGait_0pt5_02_left_04_EMG.mot
version=1
nRows=36
nColumns=33
inDegrees=no
endheader
time	1LAddLong	2LGlutMax	3LGlutMed	4LIliopsoas	5LSemiMemb	6LBicFemLong	7LRecFem	8LVastMed	9LVastLat	10LGasMed	11LTibAnt	12lTibPost	13LPeroneusLong	14LSol	15LExtDigLong	16LFlexDigLong	17RAddLong	18RGlutMax	19RGlutMed	20RIliopsoas	21RSemiMemb	22RBicFemLong	23RRecFem	24RVastMed	25RVastLat	26RGasMed	27RTibAnt	28RTibPost	29RPeroneusLong	30RSol	31RExtDigLong	32RFlexDigLong
4.44	0.010529	-0.007324	-0.057831	-0.010529	0.003204	0.036774	-0.052795	-0.006104	0.19959	0.007629	0.060883	0.002747	0.02121	-0.06134	0.12421	0.016632	0.003052	-0.13947	-0.22507	0.13229	0.005798	-0.10101	0.36026	-0.26474	-0.39505	-0.081329	0.074921	-0.052032	-0.097198	0.13489	-0.002289	0.012665
4.441	0.024567	-0.009155	-0.077209	-0.013275	-0.027161	0.00885	-0.027618	-0.001526	0.19012	-0.000458	0.044708	0.001831	0.07309	-0.062714	0.080109	0.005188	-0.003967	-0.10864	-0.18601	0.17303	-0.043335	-0.030212	0.20538	-0.17487	-0.33356	0.080719	0.06897	-0.002441	-0.019531	0.030975	-0.002136	-0.002289
4.442	0.02243	0.009308	-0.041809	0.013123	-0.025024	0.007477	-0.011444	-0.005493	0.19287	-0.004425	0.007629	0.009766	0.080261	-0.052948	0.024261	0.008392	-0.021515	-0.04776	-0.13962	0.12222	-0.054779	-0.047913	-0.015259	-0.10895	-0.10727	0.044556	0.09201	0.20966	-0.47104	-0.14893	-0.00473	-0.009308
4.443	-0.001678	0.012817	-0.031738	0.023346	-0.00946	0.007935	0.013123	0.004425	0.1944	-0.010986	-0.004272	0.00351	0.07782	-0.0177	0.008087	0.009613	-0.025482	-0.032043	-0.035858	0.061798	0.048828	-0.14191	-0.2005	0.037079	0.039368	0.003967	0.1207	0.024261	-0.42114	-0.21729	-0.007629	-0.002136
4.444	0.00351	0.032043	-0.063171	0.035095	-0.00473	-0.001526	0.020599	0.004272	0.19058	-0.013123	-0.11246	0.002136	0.10071	-0.018768	0.03891	0.003815	-0.01297	-0.10208	-0.29205	-0.02594	0.04425	-0.13886	-0.383	-0.059357	0.16266	0.038757	0.10269	-0.043488	0.092621	-0.14984	-0.003662	-0.003052
4.445	-0.000916	0.04715	-0.0737	0.009766	0.008087	-0.014038	0.022888	0.001373	0.19669	-0.006866	-0.061798	-0.003662	0.059814	-0.007629	-0.089722	-0.008392	0.001068	0.0177	-0.17624	-0.090942	-0.02182	-0.047302	-0.34103	0.049133	0.2681	-0.015564	-0.026245	-0.037231	0.73181	0.005951	-0.004578	0.003967
4.446	0.004425	0.063019	-0.037537	0.011292	0.000458	-0.017395	0.031281	0.003815	0.19012	0.004425	-0.031433	-0.006714	0.030823	-0.015564	-0.12634	0.00412	0.005341	0.11276	0.35339	-0.13962	0.027313	-0.10681	-0.34409	0.18723	0.23361	0.040894	-0.11093	-0.014496	0.27481	0.075989	-0.005646	0.002747
4.447	0.013733	0.084686	-0.039215	0.023651	0.001984	-0.000458	0.017242	-0.000153	0.19363	-0.021973	0.027466	0.008087	0.042725	0.021667	-0.051422	-0.001984	0.014801	0.21286	0.62714	-0.05722	0.068359	-0.057068	-0.3717	0.10971	0.22522	0.12009	0.037231	0.001373	-0.48462	-0.009003	-0.001373	0.001221
4.448	0.013885	0.063019	-0.051575	0.007172	0.005188	-0.013733	0.027618	0.001221	0.20462	-0.021973	0.066376	0.000916	0.059967	-0.005035	0.000458	-0.003204	0.019379	0.15533	0.61005	0.10376	0.017853	-0.16907	-0.17227	0.090485	0.19775	0.022736	0.16113	0.012207	-0.23972	-0.013885	-0.005798	-0.008087
4.449	0.002899	0.050354	-0.045319	0.010223	0.008392	-0.045471	0.011749	-0.000153	0.17578	-0.021667	0.087585	0.007477	0.044098	0.002747	0.043335	-0.00473	0.018616	0.07843	0.81299	0.15991	-0.011139	-0.19684	-0.020599	0.096588	0.15457	0.010529	0.30518	0.002594	0.57358	0.063477	0.002899	-0.009003
4.45	0.00824	0.05127	-0.063477	0.013123	0.00061	-0.047607	0.005035	-0.002899	0.18951	-0.032196	0.14832	0.001526	0.01358	0.020294	0.02594	0.00061	0.026703	0.058594	0.27725	0.13077	0.001068	-0.12344	-0.092621	0.10986	0.14969	0.059967	0.31525	0.001221	0.50751	-0.048065	-0.006256	-0.001526
4.451	-0.004272	0.032196	-0.053711	0.00061	0.003204	-0.049744	0.007324	0.002289	0.18662	-0.029602	0.10819	0.01358	0.036316	0.004578	0.032806	0.005646	0.01709	0.095367	-0.014038	0.009613	0.041962	-0.06485	-0.061035	-0.003662	0.10559	0.060883	0.068054	-0.005493	1.4096	-0.23117	-0.005188	0.005035
4.452	0.012665	0.077667	-0.042114	-0.003357	0.007935	-0.05661	-0.012817	0.009613	0.18585	-0.049744	-0.037842	0.005035	0.069122	-0.007324	0.01297	0.009308	0.006866	0.12207	-0.10193	-0.036469	0.043793	-0.039673	-0.026245	0.043945	0.053406	0.068665	-0.24735	-0.005035	0.62882	-0.28488	-0.00473	0.001373
4.453	0.017853	0.073547	-0.043182	0.001831	0.013123	-0.035095	0.007172	0.002594	0.19562	-0.037079	-0.15182	0.007019	0.080261	-0.009766	-0.061493	0.002289	-0.01358	0.11429	-0.26596	-0.028992	-0.044861	-0.005035	-0.004272	-0.006256	0.043182	0.056305	-0.19379	-0.014801	-0.33249	0.064697	-0.007477	0.002594
4.454	0.012054	0.086517	-0.041351	0.005341	0.016174	-0.043182	-0.012207	0.00061	0.17624	-0.028229	-0.25406	0.005493	0.045013	0	-0.10925	0.005035	-0.015106	0.057068	-0.14572	-0.039063	-0.080414	0.047455	-0.04303	-0.033722	0.05722	0.024261	-0.050964	-0.018158	-1.7151	0.36163	-0.006104	-0.000305
4.455	0.017395	0.084534	-0.045013	0.00885	-0.005493	-0.054626	-0.003204	0.005493	0.16068	-0.027466	-0.096588	0.000763	0.031281	0.015869	-0.10269	0.005798	0.001373	0.03479	0.018005	-0.037231	-0.027313	0.12192	-0.070801	0.027161	0.084991	0.017853	-0.03067	-0.005188	-0.39047	0.26291	-0.006409	-0.000305
4.456	0.009308	0.072327	-0.031128	0.001984	-0.016937	-0.081635	-0.010529	0.004272	0.15259	-0.031891	-0.046997	0.002289	0.048065	0.045929	0.003052	0.013733	0.002441	0.06424	-0.25833	-0.02594	-0.012054	0.005798	-0.015717	0.032959	0.089722	0.026703	-0.084229	-0.001221	0.91263	-0.15106	-0.005798	0.005951
4.457	0.01297	0.059204	-0.054626	0.004425	0.014496	-0.10269	0.001373	0.005035	0.14374	-0.052338	0.079956	0.005798	0.058289	0.058136	0.16724	0.010223	0.000763	-0.010834	-0.23529	-0.001831	-0.017242	-0.14191	-0.018921	-0.005646	0.096893	0.00061	0.12878	0.003967	-0.68085	0.032654	-0.005951	0.001984
4.458	0.014648	0.039825	-0.069885	0.010681	-0.014801	-0.081329	0.016022	0.001068	0.13443	-0.052185	0.093079	0.006866	0.092621	0.081635	0.10193	0.011292	-0.003052	-0.038605	0.15396	-0.048981	-0.036011	-0.14252	-0.080109	0.027313	0.077972	-0.038757	0.23224	0.000763	-0.39673	0.075989	-0.001678	0.005341
4.459	0.006714	0.034027	-0.068665	0.002136	0.029144	-0.058746	-0.003967	0.001678	0.12039	-0.028839	0.15595	0.002136	0.079346	0.081787	0.093079	0.007935	0.005951	-0.045471	0.009766	-0.06897	-0.067444	-0.14633	-0.032654	-0.001526	0.08667	-0.023651	0.063171	-0.003204	0.92483	0.026703	0	0.00473
4.46	0.01709	0.050964	-0.08728	0.002747	0.023346	-0.045471	0.000763	-0.005493	0.12085	-0.024261	0.082703	0.007477	0.10574	0.064392	0.10483	0.007172	-0.003357	-0.23071	-0.62439	-0.066681	-0.085754	0.039215	-0.018005	-0.015411	0.075378	-0.019531	-0.21164	-0.009155	0.040131	0.10254	-0.001678	-0.00061
4.461	0.011597	0.049133	-0.093231	0.01297	0.030823	-0.020599	0.006104	-0.007019	0.12314	-0.012207	0.025787	0.005188	0.078888	0.061493	0.027313	0.009155	0.000305	-0.1738	-0.39764	-0.037079	-0.074463	0.23483	-0.029602	-0.036163	0.049133	-0.025482	-0.081177	-0.014648	-0.54413	0.12222	-0.001221	0.007782
4.462	0.011444	0.057068	-0.097656	-0.00351	0.003357	0.022888	-0.005951	-0.008392	0.11459	-0.005188	0.033722	0.00351	0.05661	0.062561	-0.032654	-0.002747	0.005493	-0.14969	-0.33356	0.019073	-0.046692	0.22827	0.025635	-0.053101	0.041351	-0.019531	0.048218	-0.014801	-1.3327	-0.002594	-0.000153	-0.00061
4.463	0.01358	0.048676	-0.076294	-0.012054	-0.000916	0.020447	0.010986	0.006409	0.10651	0.001831	0.021057	0.001373	0.09201	-0.008545	-0.26947	-0.009003	0.014496	-0.10468	-0.41306	0.048218	-0.001984	0.089722	0.094452	-0.080719	0.027771	-0.018463	0.02655	-0.029907	-0.67184	0.007477	-0.002747	-0.002594
4.464	0.010376	0.028687	-0.057068	-0.006409	0.007324	0.013275	0.009613	0.009308	0.1004	-0.040588	0.014801	0.001221	0.13672	-0.13489	-0.10193	0.003967	0.028687	-0.17685	-0.39764	0.097809	0.03891	0.085144	0.071564	-0.024261	-0.018768	-0.023499	0.03479	0.007172	0.40726	0.009766	-0.003967	-0.009003
4.465	0.008545	0.031433	-0.085907	0.000763	-0.005341	0.016022	-0.017242	-0.002747	0.1001	0.007782	0.001221	-0.003204	0.10391	-0.13153	0.11246	0.001984	0.035553	-0.16205	-0.16632	0.17944	0.020599	0.44739	0.034637	-0.015869	-0.03891	-0.035095	0.007629	0.06134	0.94788	-0.10605	-0.002899	-0.012817
4.466	0.011139	0.041199	-0.05661	0.019379	0.003357	-0.000916	-0.021515	-0.001068	0.10422	0.031128	0.001984	0.003204	0.11047	-0.061493	-0.00946	0.007019	0.043793	-0.16556	-0.41382	0.0383	0.086365	0.36682	0.12726	-0.065002	-0.019836	-0.035858	0.079803	0.007935	-0.2681	-0.13596	-0.002441	0.00351
4.467	0.00351	0.006409	-0.03952	0.016785	-0.001984	0.001068	-0.018158	-0.001221	0.10712	0.002899	0.011444	-0.002899	0.082855	-0.038452	-0.002441	0.010529	0.043182	-0.10178	-0.62103	-0.028076	0.054626	0.053253	0.20157	-0.088348	0.000916	0.018311	0.052185	-0.001678	0.10162	-0.05661	-0.002136	0.002747
4.468	0.007019	0.018921	-0.064545	0.009003	0.010376	-0.01236	-0.013733	-0.002441	0.10513	-0.005951	0.020752	-0.002899	0.082245	-0.0383	-0.09491	0.000763	0.027161	-0.058289	-0.001678	-0.18051	0.057831	0.020447	0.35431	-0.18265	-0.11429	-0.001831	-0.12726	-0.015717	0.048676	0.043488	-0.000763	0.009766
4.469	0.012512	0.005341	-0.00412	-0.007019	0.011292	-0.022278	-0.023804	-0.002136	0.10834	-0.011597	0.024719	0.003815	0.097656	0.003357	-0.012665	0.00885	-0.008392	0.011292	0.55359	-0.10529	-0.16556	0.083008	0.15579	-0.15579	-0.11887	-0.00351	-0.1001	-0.006256	-1.2767	0.12817	-0.001678	0.00946
4.47	-0.002747	-0.001373	0.01358	-0.003967	0.007019	-0.027161	-0.029755	0.000916	0.10864	-0.020599	0.019226	-0.003662	0.091248	0.00824	-0.003967	0.008087	-0.04364	-0.040436	-0.18448	0.039978	-0.19531	-0.042114	0.007172	-0.09201	-0.058441	0.020905	-0.025177	-0.016937	0.54413	-0.041809	-0.006256	0.008698
4.471	0.001831	-0.001221	0.0354	-0.008392	0.022583	-0.02655	-0.019073	-0.000458	0.10819	-0.031128	0.005951	0.000916	0.066223	0.000763	-0.048523	0.001678	-0.043793	-0.098267	-0.20081	0.19318	-0.15549	-0.11154	0.084076	-0.071869	-0.11337	-0.093842	0.020599	-0.046234	1.0893	-0.095673	-0.006714	0.00412
4.472	0.005493	0.0383	0.041809	0.00473	0.007324	-0.037231	-0.040436	0.00412	0.10361	-0.023041	-0.00351	-0.003357	0.071564	-0.010681	-0.057526	-0.007782	-0.032654	-0.032501	0.21011	0.14282	0.046539	-0.083008	0.1297	-0.10239	-0.094147	-0.16205	-0.046844	-0.025024	-0.19424	-0.10025	-0.004883	0.005646
4.473	0.005188	0.036316	-0.013123	0.009308	0.007477	-0.040283	-0.030823	0.002899	0.10971	-0.015259	-0.002594	-0.004883	0.11231	-0.039673	-0.00351	-0.001221	-0.021973	-0.049591	-0.25299	0.076447	0.097656	-0.039368	-0.009613	-0.06424	-0.018311	-0.10025	-0.01709	-0.011444	-0.79559	-0.24857	-0.007324	0.002136
4.474	0.001831	0.015564	-0.028534	0.006561	0.018616	-0.038757	-0.050201	-0.000153	0.10819	-0.0177	0.002289	0.002441	0.12451	-0.042572	0.023193	-0.005188	-0.027771	-0.019379	0.000916	-0.002136	-0.00061	-0.057831	-0.10544	-0.04425	0.059357	0.011749	0.034637	-0.057068	-0.3743	-0.080109	-0.001068	-0.005646
4.475	0.014038	0.02655	-0.043488	0.009918	0.003357	-0.014801	-0.038757	0.001221	0.11139	-0.023346	0.006256	0.013123	0.11734	-0.031738	0.040283	0.003967	-0.030975	0.046082	0.66361	-0.11383	-0.17883	-0.033264	-0.16663	0.030518	0.1326	0.090942	0.11063	0.039215	-0.10864	-0.029602	-0.005188	-0.011749
